<svg width="100" height="100" viewBox="0 0 100 100" fill="none" xmlns="http://www.w3.org/2000/svg">
<path fill-rule="evenodd" clip-rule="evenodd" d="M50 100C77.6142 100 100 77.6142 100 50C100 22.3858 77.6142 0 50 0C22.3858 0 0 22.3858 0 50C0 77.6142 22.3858 100 50 100ZM57.3648 29.0029C61.2952 29.6843 65.0543 30.8742 68.5598 32.4892C68.5902 32.5023 68.6161 32.5242 68.6313 32.5549C74.8424 41.7275 77.91 52.0746 76.7632 63.9864C76.7589 64.0368 76.7328 64.0828 76.6916 64.1134C71.9873 67.5822 67.4303 69.688 62.9363 71.0838C62.8647 71.1058 62.7867 71.0795 62.7433 71.0181C61.7049 69.5675 60.7618 68.038 59.9359 66.4318C59.8882 66.3376 59.9316 66.2236 60.0291 66.1864C61.5271 65.6188 62.9515 64.9395 64.3216 64.1354C64.4299 64.0718 64.4364 63.9162 64.3368 63.8417C64.0463 63.6248 63.7579 63.3969 63.4826 63.169C63.4306 63.1274 63.3612 63.1186 63.3026 63.1471C54.4077 67.2732 44.6629 67.2732 35.6618 63.1471C35.6033 63.1208 35.5339 63.1296 35.4841 63.1712C35.2088 63.3991 34.9204 63.6248 34.632 63.8417C34.5323 63.9162 34.541 64.0718 34.6494 64.1354C36.0195 64.9242 37.4438 65.6188 38.9397 66.1886C39.0372 66.2258 39.0828 66.3376 39.035 66.4318C38.2265 68.0402 37.2834 69.5697 36.2255 71.0203C36.1799 71.0795 36.1041 71.1058 36.0325 71.0838C31.5602 69.688 27.0032 67.5822 22.2988 64.1134C22.2598 64.0828 22.2316 64.0346 22.2273 63.9842C21.2691 53.6809 23.2224 43.2482 30.3526 32.5527C30.3699 32.5242 30.3959 32.5023 30.4263 32.4892C33.934 30.872 37.6931 29.6822 41.6214 29.0029C41.6929 28.9919 41.7644 29.0248 41.8013 29.0883C42.2869 29.9517 42.8419 31.0583 43.217 31.9632C47.3577 31.3278 51.5634 31.3278 55.7908 31.9632C56.1658 31.078 56.7014 29.9517 57.1848 29.0883C57.2217 29.0226 57.2932 28.9897 57.3648 29.0029ZM35.4363 52.1448C35.4363 55.2126 37.6693 57.7105 40.3792 57.7105C43.1324 57.7105 45.322 55.2126 45.322 52.1448C45.3654 49.0989 43.1541 46.579 40.3792 46.579C37.626 46.579 35.4363 49.077 35.4363 52.1448ZM53.7118 52.1448C53.7118 55.2126 55.9448 57.7105 58.6546 57.7105C61.4296 57.7105 63.5975 55.2126 63.5975 52.1448C63.6408 49.0989 61.4296 46.579 58.6546 46.579C55.9014 46.579 53.7118 49.077 53.7118 52.1448Z" fill="#4493F8"/>
</svg>
