<svg width="100" height="100" viewBox="0 0 100 100" fill="none" xmlns="http://www.w3.org/2000/svg">
<path d="M42.8857 76.8917C45.665 77.614 48.5798 77.9994 51.586 77.9994C54.8135 77.9994 60.0731 76.9761 60.0731 76.9761L60.0288 74.484C60.0288 74.484 60.071 69.6188 60.071 64.9943C60.071 61.7675 58.9647 59.6559 57.7221 58.5883C65.4289 57.7318 73.5168 54.8073 73.5168 41.5179C73.5168 37.7417 72.178 34.6532 69.9606 32.2351C70.3162 31.3599 71.5034 27.8424 69.616 23.0803C69.616 23.0803 66.7171 22.1505 60.1125 26.6268C57.3492 25.8596 54.3894 25.4756 51.4524 25.4624C48.5106 25.4756 45.5508 25.8596 42.7916 26.6268C36.1829 22.1505 33.2785 23.0803 33.2785 23.0803C31.3966 27.8431 32.5838 31.3606 32.9395 32.2351C30.7269 34.6532 29.3791 37.741 29.3791 41.5179C29.3791 54.7741 37.4546 57.7422 45.1364 58.6153C44.1484 59.4802 43.2545 61.0043 42.9404 63.2398C40.9693 64.1254 35.9588 65.6516 32.873 60.3657C32.873 60.3657 31.0458 57.0455 27.5747 56.8006C27.5747 56.8006 24.1963 56.757 27.3367 58.9031C27.3367 58.9031 29.6047 59.9672 31.1773 63.9635C31.1773 63.9635 33.2079 70.6912 42.8304 68.6011C42.847 71.4882 42.8774 73.6634 42.8774 74.4847" fill="black"/>
</svg>
