<svg width="100" height="100" viewBox="0 0 100 100" fill="none" xmlns="http://www.w3.org/2000/svg">
<path d="M35.949 45.17C35.4171 46.7247 35.1467 48.3568 35.149 50C35.149 51.835 35.479 53.5925 36.089 55.215C36.8492 57.2429 38.0434 59.0802 39.588 60.5983C41.1326 62.1165 42.9903 63.2787 45.0311 64.0038C47.0718 64.7289 49.2464 64.9994 51.4026 64.7962C53.5588 64.593 55.6446 63.9211 57.5139 62.8275H57.5164C60.4615 61.1009 62.7244 58.4153 63.9264 55.22H50.5589V45.33H74.5714C75.1925 48.6012 75.1551 51.9634 74.4614 55.22C73.2595 60.8497 70.1511 65.892 65.6614 69.495C61.2269 73.0658 55.7024 75.0088 50.0089 75C45.7164 75.0024 41.4955 73.8992 37.753 71.7968C34.0106 69.6944 30.8726 66.6636 28.6415 62.9964C26.4104 59.3292 25.1613 55.1492 25.0146 50.8591C24.8679 46.5691 25.8285 42.3135 27.804 38.5025C29.9114 34.4323 33.0974 31.0199 37.0136 28.6385C40.9299 26.2571 45.4255 24.9984 50.0089 25C56.0739 25 61.6364 27.16 65.9664 30.755L57.8664 37.385C55.969 36.2041 53.8297 35.4661 51.6078 35.2258C49.3858 34.9856 47.1382 35.2493 45.0322 35.9974C42.9262 36.7454 41.0159 37.9585 39.4433 39.5466C37.8707 41.1346 36.6763 43.0567 35.949 45.17Z" fill="black"/>
</svg>
