<svg width="100" height="100" viewBox="0 0 100 100" fill="none" xmlns="http://www.w3.org/2000/svg">
<path fill-rule="evenodd" clip-rule="evenodd" d="M50 100C77.6142 100 100 77.6142 100 50C100 22.3858 77.6142 0 50 0C22.3858 0 0 22.3858 0 50C0 77.6142 22.3858 100 50 100ZM35.149 50C35.1467 48.3568 35.4171 46.7247 35.949 45.17C36.6763 43.0567 37.8707 41.1346 39.4433 39.5466C41.0159 37.9585 42.9262 36.7454 45.0322 35.9974C47.1382 35.2493 49.3858 34.9856 51.6078 35.2258C53.8297 35.4661 55.969 36.2041 57.8664 37.385L65.9664 30.755C61.6364 27.16 56.0739 25 50.0089 25C45.4255 24.9984 40.9299 26.2571 37.0136 28.6385C33.0974 31.0199 29.9114 34.4323 27.804 38.5025C25.8285 42.3135 24.8679 46.5691 25.0146 50.8591C25.1613 55.1492 26.4104 59.3292 28.6415 62.9964C30.8726 66.6636 34.0106 69.6944 37.753 71.7968C41.4955 73.8992 45.7164 75.0024 50.0089 75C55.7024 75.0088 61.2269 73.0658 65.6614 69.495C70.1511 65.892 73.2595 60.8497 74.4614 55.22C75.1551 51.9634 75.1925 48.6012 74.5714 45.33H50.5589V55.22H63.9264C62.7244 58.4153 60.4615 61.1009 57.5164 62.8275H57.5139C55.6446 63.9211 53.5588 64.593 51.4026 64.7962C49.2464 64.9994 47.0718 64.7289 45.0311 64.0038C42.9903 63.2787 41.1326 62.1165 39.588 60.5983C38.0434 59.0802 36.8492 57.2429 36.089 55.215C35.479 53.5925 35.149 51.835 35.149 50Z" fill="#4493F8"/>
</svg>
