<svg width="100" height="100" viewBox="0 0 100 100" fill="none" xmlns="http://www.w3.org/2000/svg">
<path fill-rule="evenodd" clip-rule="evenodd" d="M50 100C77.6142 100 100 77.6142 100 50C100 22.3858 77.6142 0 50 0C22.3858 0 0 22.3858 0 50C0 77.6142 22.3858 100 50 100ZM73.8376 39.2205C77.5728 39.2205 80.6043 42.252 80.6043 45.9872C80.6043 48.748 78.9262 51.1299 76.7067 52.2126C76.815 52.8622 76.8691 53.5118 76.8691 54.2156C76.8691 64.6093 64.7972 73 49.8563 73C34.9154 73 22.8435 64.6093 22.8435 54.2156C22.8435 53.5118 22.8976 52.8081 23.0059 52.1585C20.624 51.0758 19 48.748 19 45.9872C19 42.252 22.0315 39.2205 25.7667 39.2205C27.5532 39.2205 29.2313 39.9783 30.4222 41.1152C35.0778 37.7047 41.5197 35.5935 48.7195 35.377L52.1299 19.2451C52.2382 18.9203 52.4006 18.6496 52.6713 18.4872C52.9419 18.3248 53.2667 18.2707 53.5915 18.3248L64.7972 20.7067C65.5551 19.0827 67.1791 18 69.0738 18C71.7264 18 73.8917 20.1654 73.8917 22.8179C73.8917 25.4705 71.7264 27.6358 69.0738 27.6358C66.4754 27.6358 64.3642 25.5787 64.2559 23.0345L54.2411 20.9232L51.1555 35.377C58.1929 35.6476 64.5807 37.813 69.1821 41.1152C70.373 39.9242 71.997 39.2205 73.8376 39.2205ZM39.1378 45.9872C36.4852 45.9872 34.3199 48.1526 34.3199 50.8051C34.3199 53.4577 36.4852 55.623 39.1378 55.623C41.7904 55.623 43.9557 53.4577 43.9557 50.8051C43.9557 48.1526 41.7904 45.9872 39.1378 45.9872ZM49.8022 67.0453C51.6427 67.0453 57.9222 66.8287 61.2244 63.5266C61.7116 63.0394 61.7116 62.2815 61.3327 61.7402C60.8455 61.253 60.0335 61.253 59.5463 61.7402C57.435 63.7972 53.0502 64.5551 49.8563 64.5551C46.6624 64.5551 42.2234 63.7972 40.1663 61.7402C39.6791 61.253 38.8671 61.253 38.3799 61.7402C37.8927 62.2274 37.8927 63.0394 38.3799 63.5266C41.6279 66.7746 47.9616 67.0453 49.8022 67.0453ZM55.5404 50.8051C55.5404 53.4577 57.7057 55.623 60.3583 55.623C63.0108 55.623 65.1762 53.4577 65.1762 50.8051C65.1762 48.1526 63.0108 45.9872 60.3583 45.9872C57.7057 45.9872 55.5404 48.1526 55.5404 50.8051Z" fill="black"/>
</svg>
