<svg width="100" height="100" viewBox="0 0 100 100" fill="none" xmlns="http://www.w3.org/2000/svg">
<path d="M80.6043 45.9872C80.6043 42.252 77.5728 39.2205 73.8376 39.2205C71.997 39.2205 70.373 39.9242 69.1821 41.1152C64.5807 37.813 58.1929 35.6476 51.1555 35.377L54.2411 20.9232L64.2559 23.0345C64.3642 25.5787 66.4754 27.6358 69.0738 27.6358C71.7264 27.6358 73.8917 25.4705 73.8917 22.8179C73.8917 20.1654 71.7264 18 69.0738 18C67.1791 18 65.5551 19.0827 64.7972 20.7067L53.5915 18.3248C53.2667 18.2707 52.9419 18.3248 52.6713 18.4872C52.4006 18.6496 52.2382 18.9203 52.1299 19.2451L48.7195 35.377C41.5197 35.5935 35.0778 37.7047 30.4222 41.1152C29.2313 39.9783 27.5531 39.2205 25.7667 39.2205C22.0315 39.2205 19 42.252 19 45.9872C19 48.748 20.624 51.0758 23.0059 52.1585C22.8976 52.8081 22.8435 53.5118 22.8435 54.2156C22.8435 64.6093 34.9154 73 49.8563 73C64.7972 73 76.8691 64.6093 76.8691 54.2156C76.8691 53.5118 76.815 52.8622 76.7067 52.2126C78.9262 51.1299 80.6043 48.748 80.6043 45.9872V45.9872ZM34.3199 50.8051C34.3199 48.1526 36.4852 45.9872 39.1378 45.9872C41.7904 45.9872 43.9557 48.1526 43.9557 50.8051C43.9557 53.4577 41.7904 55.623 39.1378 55.623C36.4852 55.623 34.3199 53.4577 34.3199 50.8051ZM61.2244 63.5266C57.9222 66.8287 51.6427 67.0453 49.8022 67.0453C47.9616 67.0453 41.6279 66.7746 38.3799 63.5266C37.8927 63.0394 37.8927 62.2274 38.3799 61.7402C38.8671 61.253 39.6791 61.253 40.1663 61.7402C42.2234 63.7972 46.6624 64.5551 49.8563 64.5551C53.0502 64.5551 57.435 63.7972 59.5463 61.7402C60.0335 61.253 60.8455 61.253 61.3327 61.7402C61.7116 62.2815 61.7116 63.0394 61.2244 63.5266V63.5266ZM60.3583 55.623C57.7057 55.623 55.5404 53.4577 55.5404 50.8051C55.5404 48.1526 57.7057 45.9872 60.3583 45.9872C63.0108 45.9872 65.1762 48.1526 65.1762 50.8051C65.1762 53.4577 63.0108 55.623 60.3583 55.623Z" fill="black"/>
</svg>
